<?xml version="1.0" encoding="UTF-8" standalone="no"?>
<svg
   width="1000"
   height="600"
   viewBox="0 0 5000 3000"
   id="flagWarDERoot"
   version="1.1"
   sodipodi:docname="Bandeira de Guerra Wallexista.svg"
   xml:space="preserve"
   inkscape:version="1.3 (1:1.3+202307231459+0e150ed6c4)"
   xmlns:inkscape="http://www.inkscape.org/namespaces/inkscape"
   xmlns:sodipodi="http://sodipodi.sourceforge.net/DTD/sodipodi-0.dtd"
   xmlns:xlink="http://www.w3.org/1999/xlink"
   xmlns="http://www.w3.org/2000/svg"
   xmlns:svg="http://www.w3.org/2000/svg"><sodipodi:namedview
     id="namedview22"
     pagecolor="#505050"
     bordercolor="#eeeeee"
     borderopacity="1"
     inkscape:showpageshadow="0"
     inkscape:pageopacity="0"
     inkscape:pagecheckerboard="0"
     inkscape:deskcolor="#505050"
     showgrid="false"
     inkscape:zoom="0.46244784"
     inkscape:cx="467.07971"
     inkscape:cy="356.797"
     inkscape:window-width="1366"
     inkscape:window-height="717"
     inkscape:window-x="0"
     inkscape:window-y="0"
     inkscape:window-maximized="1"
     inkscape:current-layer="flagWarDE" /><!-- Defs provides a better method to control elements; e.g: to simulate XHTML CSS z-index --><defs
     id="crossTopLeftDefs"><path
       id="initialCrossTopLeft"
       d="M725.6171875,821.5 c-32.269043-70.8891602-52.1806641-148.5913086-56.9750977-230.3579102     C750.4082031,595.9365234,828.1108398,615.8481445,899,648.1171875v-191.234375     c-70.8891602,32.269043-148.5917969,52.1806641-230.3579102,56.9750977     c4.7944336-81.7666016,24.7060547-159.46875,56.9750977-230.3579102h-191.234375     c32.269043,70.8891602,52.1806641,148.5913086,56.9750977,230.3579102     C509.5917969,509.0634766,431.8891602,489.1518555,361,456.8828125v191.234375     c70.8891602-32.269043,148.5917969-52.1806641,230.3579102-56.9750977      c-4.7944336,81.7666016-24.706543,159.46875-56.9750977,230.3579102H725.6171875z" /><!-- CrossTopLeft --><g
       id="crossLeftTop"><!-- Copies of the initial top cross to modify stroke width. We don't need repeat more crosses. --><use
         xlink:href="#initialCrossTopLeft"
         stroke="#fff"
         stroke-width="132"
         id="use1" /><use
         xlink:href="#initialCrossTopLeft"
         stroke="#000"
         stroke-width="72"
         id="use2" /><use
         xlink:href="#initialCrossTopLeft"
         stroke="#fff"
         stroke-width="34"
         id="use3" /><use
         xlink:href="#initialCrossTopLeft"
         stroke="#000"
         stroke-width="0"
         id="use4" /></g><path
       id="initialCrossTopLeft-3"
       d="M725.6171875,821.5 c-32.269043-70.8891602-52.1806641-148.5913086-56.9750977-230.3579102     C750.4082031,595.9365234,828.1108398,615.8481445,899,648.1171875v-191.234375     c-70.8891602,32.269043-148.5917969,52.1806641-230.3579102,56.9750977     c4.7944336-81.7666016,24.7060547-159.46875,56.9750977-230.3579102h-191.234375     c32.269043,70.8891602,52.1806641,148.5913086,56.9750977,230.3579102     C509.5917969,509.0634766,431.8891602,489.1518555,361,456.8828125v191.234375     c70.8891602-32.269043,148.5917969-52.1806641,230.3579102-56.9750977      c-4.7944336,81.7666016-24.706543,159.46875-56.9750977,230.3579102H725.6171875z" /><g
       id="crossLeftTop-6"><!-- Copies of the initial top cross to modify stroke width. We don't need repeat more crosses. --><use
         xlink:href="#initialCrossTopLeft-3"
         stroke="#fff"
         stroke-width="132"
         id="use2367" /><use
         xlink:href="#initialCrossTopLeft-3"
         stroke="#000"
         stroke-width="72"
         id="use2369" /><use
         xlink:href="#initialCrossTopLeft-3"
         stroke="#fff"
         stroke-width="34"
         id="use2371" /><use
         xlink:href="#initialCrossTopLeft-3"
         stroke="#000"
         stroke-width="0"
         id="use2373" /></g><g
       id="svastica-7"><path
         id="h-5"
         d="M1480,975 v525 h600"
         transform="rotate(45, 1900, 1500)" /><use
         xlink:href="#h-5"
         transform="rotate(90, 1900, 1500)"
         id="use2378" /><use
         xlink:href="#h-5"
         transform="rotate(180, 1900, 1500)"
         id="use2380" /><use
         xlink:href="#h-5"
         transform="rotate(270, 1900, 1500)"
         id="use2382" /></g><g
       id="svasticaDraw-3"
       fill="none"
       stroke="#000"><use
         xlink:href="#svastica-7"
         stroke-width="210"
         id="use2385" /><use
         xlink:href="#svastica-7"
         stroke="#fff"
         stroke-width="180"
         id="use2387" /><use
         xlink:href="#svastica-7"
         stroke-width="150"
         id="use2389" /></g><g
       id="circlesWhiteExt-5"
       fill="#fff"><rect
         width="5000"
         height="750"
         y="1125"
         id="rect2393" /><rect
         width="750"
         height="3000"
         x="1525"
         id="rect2395" /><circle
         cx="1900"
         cy="1500"
         r="1000"
         id="circle2397" /></g><g
       id="circlesBlackExt-6"
       fill="#000"><rect
         width="5000"
         height="600"
         y="1200"
         id="rect2400" /><rect
         width="600"
         height="3000"
         x="1600"
         id="rect2402" /><circle
         cx="1900"
         cy="1500"
         r="925"
         id="circle2404" /></g><g
       id="centralCircles-2"
       fill="#fff"><circle
         cx="1900"
         cy="1500"
         r="850"
         id="circle2407" /><circle
         cx="1900"
         cy="1500"
         r="782"
         stroke="#000"
         stroke-width="46"
         id="circle2409" /></g><g
       id="centralCrosses-9"><rect
         id="horizontalRect-1"
         width="5500"
         height="376"
         x="-248"
         y="1310"
         fill="none"
         stroke="#fff"
         stroke-width="76"
         stroke-miterlimit="0"
         stroke-dashoffset="0" /><use
         xlink:href="#horizontalRect-1"
         transform="rotate(90, 1900, 1500)"
         id="use2413" /></g><g
       id="externalCircles-2"><use
         xlink:href="#circlesWhiteExt-5"
         id="use2416" /><use
         xlink:href="#circlesBlackExt-6"
         id="use2418" /></g><path
       id="initialCrossTopLeft-0"
       d="M725.6171875,821.5 c-32.269043-70.8891602-52.1806641-148.5913086-56.9750977-230.3579102     C750.4082031,595.9365234,828.1108398,615.8481445,899,648.1171875v-191.234375     c-70.8891602,32.269043-148.5917969,52.1806641-230.3579102,56.9750977     c4.7944336-81.7666016,24.7060547-159.46875,56.9750977-230.3579102h-191.234375     c32.269043,70.8891602,52.1806641,148.5913086,56.9750977,230.3579102     C509.5917969,509.0634766,431.8891602,489.1518555,361,456.8828125v191.234375     c70.8891602-32.269043,148.5917969-52.1806641,230.3579102-56.9750977      c-4.7944336,81.7666016-24.706543,159.46875-56.9750977,230.3579102H725.6171875z" /><g
       id="crossLeftTop-9"><!-- Copies of the initial top cross to modify stroke width. We don't need repeat more crosses. --><use
         xlink:href="#initialCrossTopLeft-0"
         stroke="#fff"
         stroke-width="132"
         id="use2367-3" /><use
         xlink:href="#initialCrossTopLeft-0"
         stroke="#000"
         stroke-width="72"
         id="use2369-6" /><use
         xlink:href="#initialCrossTopLeft-0"
         stroke="#fff"
         stroke-width="34"
         id="use2371-0" /><use
         xlink:href="#initialCrossTopLeft-0"
         stroke="#000"
         stroke-width="0"
         id="use2373-6" /></g><g
       id="svastica-2"><path
         id="h-6"
         d="M1480,975 v525 h600"
         transform="rotate(45, 1900, 1500)" /><use
         xlink:href="#h-6"
         transform="rotate(90, 1900, 1500)"
         id="use2378-1" /><use
         xlink:href="#h-6"
         transform="rotate(180, 1900, 1500)"
         id="use2380-8" /><use
         xlink:href="#h-6"
         transform="rotate(270, 1900, 1500)"
         id="use2382-7" /></g><g
       id="svasticaDraw-9"
       fill="none"
       stroke="#000"><use
         xlink:href="#svastica-2"
         stroke-width="210"
         id="use2385-2" /><use
         xlink:href="#svastica-2"
         stroke="#fff"
         stroke-width="180"
         id="use2387-0" /><use
         xlink:href="#svastica-2"
         stroke-width="150"
         id="use2389-2" /></g><g
       id="circlesWhiteExt-3"
       fill="#fff"><rect
         width="5000"
         height="750"
         y="1125"
         id="rect2393-7" /><rect
         width="750"
         height="3000"
         x="1525"
         id="rect2395-5" /><circle
         cx="1900"
         cy="1500"
         r="1000"
         id="circle2397-9" /></g><g
       id="circlesBlackExt-2"
       fill="#000"><rect
         width="5000"
         height="600"
         y="1200"
         id="rect2400-2" /><rect
         width="600"
         height="3000"
         x="1600"
         id="rect2402-8" /><circle
         cx="1900"
         cy="1500"
         r="925"
         id="circle2404-9" /></g><g
       id="centralCircles-7"
       fill="#fff"><circle
         cx="1900"
         cy="1500"
         r="850"
         id="circle2407-3" /><circle
         cx="1900"
         cy="1500"
         r="782"
         stroke="#000"
         stroke-width="46"
         id="circle2409-6" /></g><g
       id="centralCrosses-1"><rect
         id="horizontalRect-2"
         width="5500"
         height="376"
         x="-248"
         y="1310"
         fill="none"
         stroke="#fff"
         stroke-width="76"
         stroke-miterlimit="0"
         stroke-dashoffset="0" /><use
         xlink:href="#horizontalRect-2"
         transform="rotate(90, 1900, 1500)"
         id="use2413-9" /></g><g
       id="externalCircles-3"><use
         xlink:href="#circlesWhiteExt-3"
         id="use2416-1" /><use
         xlink:href="#circlesBlackExt-2"
         id="use2418-9" /></g></defs><defs
     id="svasticaDefs"><!-- Pure Svástica --><g
       id="svastica"><path
         id="h"
         d="M1480,975 v525 h600"
         transform="rotate(45, 1900, 1500)" /><use
         xlink:href="#h"
         transform="rotate(90, 1900, 1500)"
         id="use5" /><use
         xlink:href="#h"
         transform="rotate(180, 1900, 1500)"
         id="use6" /><use
         xlink:href="#h"
         transform="rotate(270, 1900, 1500)"
         id="use7" /></g><!-- Svástica Draw --><g
       id="svasticaDraw"
       fill="none"
       stroke="#000"><use
         xlink:href="#svastica"
         stroke-width="210"
         id="use8" /><use
         xlink:href="#svastica"
         stroke="#fff"
         stroke-width="180"
         id="use9" /><use
         xlink:href="#svastica"
         stroke-width="150"
         id="use10" /></g></defs><defs
     id="circlesDefs"><g
       id="circlesWhiteExt"
       fill="#fff"><rect
         width="5000"
         height="750"
         y="1125"
         id="rect10" /><rect
         width="750"
         height="3000"
         x="1525"
         id="rect11" /><circle
         cx="1900"
         cy="1500"
         r="1000"
         id="circle11" /></g><g
       id="circlesBlackExt"
       fill="#000"><rect
         width="5000"
         height="600"
         y="1200"
         id="rect12" /><rect
         width="600"
         height="3000"
         x="1600"
         id="rect13" /><circle
         cx="1900"
         cy="1500"
         r="925"
         id="circle13" /></g><g
       id="centralCircles"
       fill="#fff"><circle
         cx="1900"
         cy="1500"
         r="850"
         id="circle14" /><circle
         cx="1900"
         cy="1500"
         r="782"
         stroke="#000"
         stroke-width="46"
         id="circle15" /></g><!-- Recurrent groups --><!-- Central Crosses --><g
       id="centralCrosses"><rect
         id="horizontalRect"
         width="5500"
         height="376"
         x="-248"
         y="1310"
         fill="none"
         stroke="#fff"
         stroke-width="76"
         stroke-miterlimit="0"
         stroke-dashoffset="0" /><use
         xlink:href="#horizontalRect"
         transform="rotate(90, 1900, 1500)"
         id="use15" /></g><!-- External Circles --><g
       id="externalCircles"><use
         xlink:href="#circlesWhiteExt"
         id="use16" /><use
         xlink:href="#circlesBlackExt"
         id="use17" /></g></defs><!-- Run... DE War Flag --><g
     id="flagWarDE"><rect
       width="5000"
       height="3000"
       fill="#dd0000"
       id="rect17"
       style="fill:#003379;fill-opacity:1" /><use
       xlink:href="#crossLeftTop"
       id="use18" /><use
       xlink:href="#externalCircles"
       id="use19" /><use
       xlink:href="#centralCrosses"
       id="use20" /><use
       xlink:href="#centralCircles"
       id="use21" /><g
       id="g64"
       transform="matrix(0.75730618,0,0,0.75730618,-3579.9113,591.83522)"><g
         inkscape:label="Layer 1"
         id="g63"
         transform="matrix(1.3857537,0,0,1.3857537,2183.0271,-803.44472)"
         style="fill:#000005;stroke:#000000;stroke-width:21.6489;stroke-dasharray:none;stroke-opacity:1"><g
           id="g61"
           transform="matrix(1.1334453,0,0,1.1334453,2542.2294,456.09533)"
           style="stroke:#000000;stroke-width:19.1001;stroke-dasharray:none;stroke-opacity:1"><g
             id="g60"
             transform="matrix(1.2676971,0,0,1.2583756,-676.61878,-19.350994)"
             style="stroke:#000000;stroke-width:15.1224;stroke-dasharray:none;stroke-opacity:1"><g
               id="g55"
               style="stroke:#000000;stroke-width:15.1224;stroke-dasharray:none;stroke-opacity:1"><g
                 id="g52"
                 style="stroke:#000000;stroke-width:15.1224;stroke-dasharray:none;stroke-opacity:1"><path
                   style="color:#000000;stroke:#000000;stroke-width:15.1224;stroke-dasharray:none;stroke-opacity:1"
                   d="m 1143.9777,698.24999 388.1091,-359.83333 -206.1109,317.49999 h 190.4999 l -33.8314,42.33334 h -222.25 l 69.224,-116.41667 -122.1407,116.41667 z"
                   id="path51" /><path
                   style="color:#000000;fill:#ffffff;stroke:#000000;stroke-width:15.1224;stroke-dasharray:none;stroke-opacity:1"
                   d="m 1531.2305,337.49219 -390.4649,362.01758 h 3.2129 64.0039 l 115.8614,-110.42969 -65.6641,110.42969 H 1483.25 l 35.8457,-44.85352 h -190.7988 l 204.8476,-315.55273 z m -5.7188,8.73828 -201.8554,310.94726 h 190.1992 l -31.8164,39.8125 h -219.4278 l 68.0899,-114.51367 -1.9532,-1.55469 -121.7753,116.06836 h -59.7832 z"
                   id="path52" /></g><g
                 id="g54"
                 style="stroke:#000000;stroke-width:15.1224;stroke-dasharray:none;stroke-opacity:1"><path
                   style="color:#000000;fill:#ffffff;stroke:#000000;stroke-width:15.1224;stroke-dasharray:none;stroke-opacity:1"
                   d="m 1530.5645,336.77539 -392.295,363.71484 h 5.709 64.3945 l 110.9844,-105.78125 -62.9004,105.78125 h 227.2637 l 37.4121,-46.8125 h -191.0332 l 203.8652,-314.04101 z m -10.1622,15.52734 -198.5507,305.85352 h 189.9687 l -30.2519,37.85352 h -217.2383 l 67.2129,-113.03125 -3.4688,-2.76563 -121.4922,115.79688 h -56.8945 z"
                   id="path53" /><path
                   style="color:#000000;fill:#ffffff;stroke:#000000;stroke-width:15.1224;stroke-dasharray:none;stroke-opacity:1"
                   d="m 1530.5234,335.09375 -0.8164,0.75781 L 1135.0566,701.75 h 8.9219 64.8985 l 104.705,-99.79688 -59.3398,99.79688 h 230.084 l 39.4277,-49.33203 h -191.334 l 203.2071,-313.0293 z m 0.082,3.36328 1.6953,1.42774 -204.5215,315.05273 h 190.7324 l -35.3965,44.29297 h -224.4414 l 61.7676,-103.87695 -1.9531,-1.55665 -110.6192,105.4336 h -63.8906 -2.4961 z m -11.0606,12.92188 -373.0703,345.89062 h 60.6113 l 121.0625,-115.38672 1.75,1.39649 -67.7832,113.99023 h 220.0586 l 32.2676,-40.37305 h -190.2695 l 197.2871,-303.9082 z m -5.7168,8.73828 -194.2968,299.29883 h 189.6679 L 1480.9629,694.75 h -214.416 L 1333.1875,582.67773 1328,578.54297 1206.0781,694.75 h -53.1777 z"
                   id="path54" /></g></g><g
               id="g59"
               style="stroke:#000000;stroke-width:15.1224;stroke-dasharray:none;stroke-opacity:1"><g
                 id="g56"
                 style="stroke:#000000;stroke-width:15.1224;stroke-dasharray:none;stroke-opacity:1"><path
                   style="color:#000000;stroke:#000000;stroke-width:15.1224;stroke-dasharray:none;stroke-opacity:1"
                   d="M 1460.437,719.41664 1072.3279,1079.25 1278.4388,761.74998 h -190.4999 l 33.8314,-42.33334 h 222.25 l -69.224,116.41667 122.1407,-116.41667 z"
                   id="path55" /><path
                   style="color:#000000;fill:#ffffff;stroke:#000000;stroke-width:15.1224;stroke-dasharray:none;stroke-opacity:1"
                   d="m 1121.1641,718.15625 -35.8457,44.85352 h 190.7988 l -204.8457,315.55473 1.914,1.6093 390.4649,-362.01755 h -3.2129 -64.0039 l -115.8672,110.43945 65.6699,-110.43945 z m 1.2129,2.52148 h 219.4277 l -68.0918,114.51172 1.9531,1.55664 121.7754,-116.06836 h 59.7813 l -378.3204,350.75777 201.8575,-310.94527 h -190.1993 z"
                   id="path56" /></g><g
                 id="g58"
                 style="stroke:#000000;stroke-width:15.1224;stroke-dasharray:none;stroke-opacity:1"><path
                   style="color:#000000;fill:#ffffff;stroke:#000000;stroke-width:15.1224;stroke-dasharray:none;stroke-opacity:1"
                   d="m 1120.6934,717.17773 -37.4102,46.8125 h 191.0313 l -203.8653,314.04107 3.4004,2.8613 392.2969,-363.71487 h -5.709 -64.3965 l -110.9863,105.78516 62.9023,-105.78516 z m 2.1543,4.47852 h 217.2363 l -67.2129,113.0332 3.4707,2.76563 121.4922,-115.79883 h 56.8945 l -370.7129,343.70315 198.5469,-305.84963 h -189.9668 z"
                   id="path57" /><path
                   style="color:#000000;fill:#ffffff;stroke:#000000;stroke-width:15.1224;stroke-dasharray:none;stroke-opacity:1"
                   d="m 1120.0879,715.91797 -0.3789,0.47265 -39.0469,48.85938 h 191.332 l -203.2089,313.0293 5.1054,4.2949 395.4688,-366.65623 h -8.9219 -64.9004 l -104.707,99.80078 59.3418,-99.80078 z m 1.2129,2.51953 h 224.4394 l -61.7695,103.88086 1.9531,1.55664 110.6211,-105.4375 h 63.8926 2.4961 l -389.125,360.7734 -1.6953,-1.4277 204.5215,-315.05273 h -190.7305 z m 0.9414,1.95898 -0.3789,0.47266 -31.8887,39.90039 h 190.2676 l -197.2832,303.90427 1.914,1.6094 373.0684,-345.88672 h -60.6113 l -121.0625,115.38868 -1.752,-1.39649 67.7832,-113.99219 z m 1.2129,2.51954 h 214.4121 l -66.6406,112.07421 5.1894,4.13477 121.9219,-116.20898 h 53.1777 L 1090.5898,1057.5449 1284.8828,758.25 h -189.666 z"
                   id="path58" /></g></g></g></g><g
           id="g62"
           transform="matrix(0.40551441,0,0,0.40551441,74.653379,-1919.5856)"
           style="stroke:#000000;stroke-width:53.3862;stroke-dasharray:none;stroke-opacity:1" /></g><g
         inkscape:label="Layer 1"
         id="g30"
         transform="matrix(1.3857537,0,0,1.3857537,2183.0271,-803.44472)"
         style="fill:#000005;stroke:#ffffff;stroke-width:3.60814;stroke-opacity:1"><g
           id="g28"
           transform="matrix(1.1334453,0,0,1.1334453,2542.2294,456.09533)"
           style="stroke:#ffffff;stroke-width:3.18334;stroke-opacity:1"><g
             id="g27"
             transform="matrix(1.2676971,0,0,1.2583756,-676.61878,-19.350994)"
             style="stroke:#ffffff;stroke-width:2.52041;stroke-opacity:1"><g
               id="path26"
               style="stroke:#ffffff;stroke-opacity:1"><g
                 id="path31"
                 style="stroke:#ffffff;stroke-opacity:1"><path
                   style="color:#000000;stroke:#ffffff;stroke-opacity:1;-inkscape-stroke:none"
                   d="m 1143.9777,698.24999 388.1091,-359.83333 -206.1109,317.49999 h 190.4999 l -33.8314,42.33334 h -222.25 l 69.224,-116.41667 -122.1407,116.41667 z"
                   id="path50" /><path
                   style="color:#000000;fill:#ffffff;stroke:#ffffff;stroke-opacity:1;-inkscape-stroke:none"
                   d="m 1531.2305,337.49219 -390.4649,362.01758 h 3.2129 64.0039 l 115.8614,-110.42969 -65.6641,110.42969 H 1483.25 l 35.8457,-44.85352 h -190.7988 l 204.8476,-315.55273 z m -5.7188,8.73828 -201.8554,310.94726 h 190.1992 l -31.8164,39.8125 h -219.4278 l 68.0899,-114.51367 -1.9532,-1.55469 -121.7753,116.06836 h -59.7832 z"
                   id="path49" /></g><g
                 id="path32"
                 style="stroke:#ffffff;stroke-opacity:1"><path
                   style="color:#000000;fill:#ffffff;stroke:#ffffff;stroke-opacity:1;-inkscape-stroke:none"
                   d="m 1530.5645,336.77539 -392.295,363.71484 h 5.709 64.3945 l 110.9844,-105.78125 -62.9004,105.78125 h 227.2637 l 37.4121,-46.8125 h -191.0332 l 203.8652,-314.04101 z m -10.1622,15.52734 -198.5507,305.85352 h 189.9687 l -30.2519,37.85352 h -217.2383 l 67.2129,-113.03125 -3.4688,-2.76563 -121.4922,115.79688 h -56.8945 z"
                   id="path48" /><path
                   style="color:#000000;fill:#ffffff;stroke:#ffffff;stroke-opacity:1;-inkscape-stroke:none"
                   d="m 1530.5234,335.09375 -0.8164,0.75781 L 1135.0566,701.75 h 8.9219 64.8985 l 104.705,-99.79688 -59.3398,99.79688 h 230.084 l 39.4277,-49.33203 h -191.334 l 203.2071,-313.0293 z m 0.082,3.36328 1.6953,1.42774 -204.5215,315.05273 h 190.7324 l -35.3965,44.29297 h -224.4414 l 61.7676,-103.87695 -1.9531,-1.55665 -110.6192,105.4336 h -63.8906 -2.4961 z m -11.0606,12.92188 -373.0703,345.89062 h 60.6113 l 121.0625,-115.38672 1.75,1.39649 -67.7832,113.99023 h 220.0586 l 32.2676,-40.37305 h -190.2695 l 197.2871,-303.9082 z m -5.7168,8.73828 -194.2968,299.29883 h 189.6679 L 1480.9629,694.75 h -214.416 L 1333.1875,582.67773 1328,578.54297 1206.0781,694.75 h -53.1777 z"
                   id="path47" /></g></g><g
               id="path27"
               style="stroke:#ffffff;stroke-opacity:1"><g
                 id="path33"
                 style="stroke:#ffffff;stroke-opacity:1"><path
                   style="color:#000000;stroke:#ffffff;stroke-opacity:1;-inkscape-stroke:none"
                   d="M 1460.437,719.41664 1072.3279,1079.25 1278.4388,761.74998 h -190.4999 l 33.8314,-42.33334 h 222.25 l -69.224,116.41667 122.1407,-116.41667 z"
                   id="path46" /><path
                   style="color:#000000;fill:#ffffff;stroke:#ffffff;stroke-opacity:1;-inkscape-stroke:none"
                   d="m 1121.1641,718.15625 -35.8457,44.85352 h 190.7988 l -204.8457,315.55473 1.914,1.6093 390.4649,-362.01755 h -3.2129 -64.0039 l -115.8672,110.43945 65.6699,-110.43945 z m 1.2129,2.52148 h 219.4277 l -68.0918,114.51172 1.9531,1.55664 121.7754,-116.06836 h 59.7813 l -378.3204,350.75777 201.8575,-310.94527 h -190.1993 z"
                   id="path45" /></g><g
                 id="path34"
                 style="stroke:#ffffff;stroke-opacity:1"><path
                   style="color:#000000;fill:#ffffff;stroke:#ffffff;stroke-opacity:1;-inkscape-stroke:none"
                   d="m 1120.6934,717.17773 -37.4102,46.8125 h 191.0313 l -203.8653,314.04107 3.4004,2.8613 392.2969,-363.71487 h -5.709 -64.3965 l -110.9863,105.78516 62.9023,-105.78516 z m 2.1543,4.47852 h 217.2363 l -67.2129,113.0332 3.4707,2.76563 121.4922,-115.79883 h 56.8945 l -370.7129,343.70315 198.5469,-305.84963 h -189.9668 z"
                   id="path44" /><path
                   style="color:#000000;fill:#ffffff;stroke:#ffffff;stroke-opacity:1;-inkscape-stroke:none"
                   d="m 1120.0879,715.91797 -0.3789,0.47265 -39.0469,48.85938 h 191.332 l -203.2089,313.0293 5.1054,4.2949 395.4688,-366.65623 h -8.9219 -64.9004 l -104.707,99.80078 59.3418,-99.80078 z m 1.2129,2.51953 h 224.4394 l -61.7695,103.88086 1.9531,1.55664 110.6211,-105.4375 h 63.8926 2.4961 l -389.125,360.7734 -1.6953,-1.4277 204.5215,-315.05273 h -190.7305 z m 0.9414,1.95898 -0.3789,0.47266 -31.8887,39.90039 h 190.2676 l -197.2832,303.90427 1.914,1.6094 373.0684,-345.88672 h -60.6113 l -121.0625,115.38868 -1.752,-1.39649 67.7832,-113.99219 z m 1.2129,2.51954 h 214.4121 l -66.6406,112.07421 5.1894,4.13477 121.9219,-116.20898 h 53.1777 L 1090.5898,1057.5449 1284.8828,758.25 h -189.666 z"
                   id="path43" /></g></g></g></g><g
           id="g29"
           transform="matrix(0.40551441,0,0,0.40551441,74.653379,-1919.5856)"
           style="stroke:#ffffff;stroke-width:8.8977;stroke-opacity:1" /></g></g></g><!-- DE War Flag --></svg>
